<mxfile host="app.diagrams.net" modified="2023-08-23T01:17:00.682Z" agent="Mozilla/5.0 (Windows NT 10.0; Win64; x64) AppleWebKit/537.36 (KHTML, like Gecko) Chrome/116.0.0.0 Safari/537.36" etag="6lT8VtchsKUR88_mIkBR" version="21.6.8" type="github">
  <diagram name="第 1 页" id="dh87Dl3JJxMjaswg0dX0">
    <mxGraphModel dx="1050" dy="542" grid="1" gridSize="10" guides="1" tooltips="1" connect="1" arrows="1" fold="1" page="1" pageScale="1" pageWidth="827" pageHeight="1169" math="0" shadow="0">
      <root>
        <mxCell id="0" />
        <mxCell id="1" parent="0" />
        <mxCell id="e1fn-U4SCSSYCrqmIY5f-1" value="Client" style="shape=umlLifeline;perimeter=lifelinePerimeter;whiteSpace=wrap;container=1;dropTarget=0;collapsible=0;recursiveResize=0;outlineConnect=0;portConstraint=eastwest;newEdgeStyle={&quot;edgeStyle&quot;:&quot;elbowEdgeStyle&quot;,&quot;elbow&quot;:&quot;vertical&quot;,&quot;curved&quot;:0,&quot;rounded&quot;:0};size=65;" vertex="1" parent="1">
          <mxGeometry x="20" y="20" width="150" height="628" as="geometry" />
        </mxCell>
        <mxCell id="e1fn-U4SCSSYCrqmIY5f-2" value="Webpack" style="shape=umlLifeline;perimeter=lifelinePerimeter;whiteSpace=wrap;container=1;dropTarget=0;collapsible=0;recursiveResize=0;outlineConnect=0;portConstraint=eastwest;newEdgeStyle={&quot;edgeStyle&quot;:&quot;elbowEdgeStyle&quot;,&quot;elbow&quot;:&quot;vertical&quot;,&quot;curved&quot;:0,&quot;rounded&quot;:0};size=65;" vertex="1" parent="1">
          <mxGeometry x="306" y="20" width="150" height="628" as="geometry" />
        </mxCell>
        <mxCell id="e1fn-U4SCSSYCrqmIY5f-3" value="Browser" style="shape=umlLifeline;perimeter=lifelinePerimeter;whiteSpace=wrap;container=1;dropTarget=0;collapsible=0;recursiveResize=0;outlineConnect=0;portConstraint=eastwest;newEdgeStyle={&quot;edgeStyle&quot;:&quot;elbowEdgeStyle&quot;,&quot;elbow&quot;:&quot;vertical&quot;,&quot;curved&quot;:0,&quot;rounded&quot;:0};size=65;" vertex="1" parent="1">
          <mxGeometry x="506" y="20" width="150" height="628" as="geometry" />
        </mxCell>
        <mxCell id="e1fn-U4SCSSYCrqmIY5f-4" value="Loaders" style="shape=umlLifeline;perimeter=lifelinePerimeter;whiteSpace=wrap;container=1;dropTarget=0;collapsible=0;recursiveResize=0;outlineConnect=0;portConstraint=eastwest;newEdgeStyle={&quot;edgeStyle&quot;:&quot;elbowEdgeStyle&quot;,&quot;elbow&quot;:&quot;vertical&quot;,&quot;curved&quot;:0,&quot;rounded&quot;:0};size=65;" vertex="1" parent="1">
          <mxGeometry x="706" y="20" width="150" height="628" as="geometry" />
        </mxCell>
        <mxCell id="e1fn-U4SCSSYCrqmIY5f-5" value="Plugins" style="shape=umlLifeline;perimeter=lifelinePerimeter;whiteSpace=wrap;container=1;dropTarget=0;collapsible=0;recursiveResize=0;outlineConnect=0;portConstraint=eastwest;newEdgeStyle={&quot;edgeStyle&quot;:&quot;elbowEdgeStyle&quot;,&quot;elbow&quot;:&quot;vertical&quot;,&quot;curved&quot;:0,&quot;rounded&quot;:0};size=65;" vertex="1" parent="1">
          <mxGeometry x="906" y="20" width="150" height="628" as="geometry" />
        </mxCell>
        <mxCell id="e1fn-U4SCSSYCrqmIY5f-6" value="Output Files" style="shape=umlLifeline;perimeter=lifelinePerimeter;whiteSpace=wrap;container=1;dropTarget=0;collapsible=0;recursiveResize=0;outlineConnect=0;portConstraint=eastwest;newEdgeStyle={&quot;edgeStyle&quot;:&quot;elbowEdgeStyle&quot;,&quot;elbow&quot;:&quot;vertical&quot;,&quot;curved&quot;:0,&quot;rounded&quot;:0};size=65;" vertex="1" parent="1">
          <mxGeometry x="1106" y="20" width="150" height="628" as="geometry" />
        </mxCell>
        <mxCell id="e1fn-U4SCSSYCrqmIY5f-7" value="Request module" style="verticalAlign=bottom;endArrow=block;edgeStyle=elbowEdgeStyle;elbow=vertical;curved=0;rounded=0;" edge="1" parent="1" source="e1fn-U4SCSSYCrqmIY5f-1" target="e1fn-U4SCSSYCrqmIY5f-2">
          <mxGeometry relative="1" as="geometry">
            <Array as="points">
              <mxPoint x="248" y="127" />
            </Array>
          </mxGeometry>
        </mxCell>
        <mxCell id="e1fn-U4SCSSYCrqmIY5f-8" value="Serve HTML file" style="verticalAlign=bottom;endArrow=block;edgeStyle=elbowEdgeStyle;elbow=vertical;curved=0;rounded=0;" edge="1" parent="1" source="e1fn-U4SCSSYCrqmIY5f-2" target="e1fn-U4SCSSYCrqmIY5f-3">
          <mxGeometry relative="1" as="geometry">
            <Array as="points">
              <mxPoint x="494" y="179" />
            </Array>
          </mxGeometry>
        </mxCell>
        <mxCell id="e1fn-U4SCSSYCrqmIY5f-9" value="Analyze module dependencies" style="verticalAlign=bottom;endArrow=block;edgeStyle=elbowEdgeStyle;elbow=vertical;curved=0;rounded=0;" edge="1" parent="1" source="e1fn-U4SCSSYCrqmIY5f-2" target="e1fn-U4SCSSYCrqmIY5f-1">
          <mxGeometry relative="1" as="geometry">
            <Array as="points">
              <mxPoint x="246" y="231" />
            </Array>
          </mxGeometry>
        </mxCell>
        <mxCell id="e1fn-U4SCSSYCrqmIY5f-10" value="Apply loaders to module code" style="verticalAlign=bottom;endArrow=block;edgeStyle=elbowEdgeStyle;elbow=vertical;curved=0;rounded=0;" edge="1" parent="1" source="e1fn-U4SCSSYCrqmIY5f-2" target="e1fn-U4SCSSYCrqmIY5f-4">
          <mxGeometry relative="1" as="geometry">
            <Array as="points">
              <mxPoint x="594" y="283" />
            </Array>
          </mxGeometry>
        </mxCell>
        <mxCell id="e1fn-U4SCSSYCrqmIY5f-11" value="Transformed module code" style="verticalAlign=bottom;endArrow=block;edgeStyle=elbowEdgeStyle;elbow=vertical;curved=0;rounded=0;" edge="1" parent="1" source="e1fn-U4SCSSYCrqmIY5f-4" target="e1fn-U4SCSSYCrqmIY5f-2">
          <mxGeometry relative="1" as="geometry">
            <Array as="points">
              <mxPoint x="591" y="335" />
            </Array>
          </mxGeometry>
        </mxCell>
        <mxCell id="e1fn-U4SCSSYCrqmIY5f-12" value="Apply plugins to transformed code" style="verticalAlign=bottom;endArrow=block;edgeStyle=elbowEdgeStyle;elbow=vertical;curved=0;rounded=0;" edge="1" parent="1" source="e1fn-U4SCSSYCrqmIY5f-2" target="e1fn-U4SCSSYCrqmIY5f-5">
          <mxGeometry relative="1" as="geometry">
            <Array as="points">
              <mxPoint x="696" y="387" />
            </Array>
          </mxGeometry>
        </mxCell>
        <mxCell id="e1fn-U4SCSSYCrqmIY5f-13" value="Modified code" style="verticalAlign=bottom;endArrow=block;edgeStyle=elbowEdgeStyle;elbow=vertical;curved=0;rounded=0;" edge="1" parent="1" source="e1fn-U4SCSSYCrqmIY5f-5" target="e1fn-U4SCSSYCrqmIY5f-2">
          <mxGeometry relative="1" as="geometry">
            <Array as="points">
              <mxPoint x="694" y="439" />
            </Array>
          </mxGeometry>
        </mxCell>
        <mxCell id="e1fn-U4SCSSYCrqmIY5f-14" value="Bundle module code" style="verticalAlign=bottom;endArrow=block;edgeStyle=elbowEdgeStyle;elbow=vertical;curved=0;rounded=0;" edge="1" parent="1" source="e1fn-U4SCSSYCrqmIY5f-2" target="e1fn-U4SCSSYCrqmIY5f-6">
          <mxGeometry relative="1" as="geometry">
            <Array as="points">
              <mxPoint x="799" y="491" />
            </Array>
          </mxGeometry>
        </mxCell>
        <mxCell id="e1fn-U4SCSSYCrqmIY5f-15" value="Load bundled code" style="verticalAlign=bottom;endArrow=block;edgeStyle=elbowEdgeStyle;elbow=vertical;curved=0;rounded=0;" edge="1" parent="1" source="e1fn-U4SCSSYCrqmIY5f-6" target="e1fn-U4SCSSYCrqmIY5f-3">
          <mxGeometry relative="1" as="geometry">
            <Array as="points">
              <mxPoint x="891" y="543" />
            </Array>
          </mxGeometry>
        </mxCell>
      </root>
    </mxGraphModel>
  </diagram>
</mxfile>
